# xmcd
#
# Track frame offsets: 
#        150
#        23258
#        43531
#        64408
#        94720
#        114352
#        138804
#        154472
#        173615
#        202879
#
# Disc length: 2971 seconds
#
# Revision: 0
# Processed by: cddbd v1.5.1PL0 Copyright (c) Steve Scherf et al.
# Submitted via: ExactAudioCopy v0.95b2
#
DISCID=750b990a
DTITLE=Maryrose Crook and the Renderers - Ghosts Of Our Vegas Lives
DYEAR=2005
DGENRE=
TTITLE0=Under The Sea
TTITLE1=Dream That You're Driving
TTITLE2=Night Train
TTITLE3=Ghosts Of Our Vegas Lives
TTITLE4=A Little Strange
TTITLE5=Storm From The East
TTITLE6=Fall Of The Earth
TTITLE7=Blood Of The Angels
TTITLE8=Sea Of Total Darkness
TTITLE9=The Outgoing Queen
EXTD=
EXTT0=
EXTT1=
EXTT2=
EXTT3=
EXTT4=
EXTT5=
EXTT6=
EXTT7=
EXTT8=
EXTT9=
PLAYORDER=
